<?xml version="1.0" encoding="UTF-8" standalone="no"?>
<svg
   version="1.1"
   id="svg1466"
   width="800"
   height="250"
   xmlns="http://www.w3.org/2000/svg"
   xmlns:svg="http://www.w3.org/2000/svg">
  <g
     id="g1462"
     transform="matrix(1.6166791,0,0,1.6166791,-19.351649,-4.5606519)">
    <g
       id="g1226"
       transform="translate(19.398678,1.2483921)">
      <g
         id="g1006"
         transform="matrix(1.5343887,0,0,1.5343887,-15.704754,-97.025452)"
         style="fill:#333333;fill-opacity:1">
        <path
           d="m 0.62,0 v -7.51 h 2.46 q 1.12,0 1.12,1.05 v 0 2.5 q 0,1.06 -1.12,1.06 v 0 H 1.7 V 0 Z m 2.5,-4.13 v 0 -2.16 Q 3.12,-6.5 3.05,-6.57 2.98,-6.64 2.76,-6.64 v 0 H 1.7 v 2.87 h 1.06 q 0.22,0 0.29,-0.07 0.07,-0.07 0.07,-0.29 z m 6.12,-3.38 v 6.63 H 11.1 V 0 H 8.16 V -7.51 Z M 18.62,0 h -1.09 l -0.3,-1.74 H 15.65 L 15.37,0 h -1.08 l 1.33,-7.51 h 1.58 z m -2.22,-6.58 -0.62,3.96 h 1.31 z m 8.12,4.2 V 0 h -1.1 v -2.38 l -1.6,-5.13 h 1.1 l 1.04,4.14 0.99,-4.14 h 1.1 z m 8.66,-4.08 v 1.14 h -1.09 v -0.99 q 0,-0.22 -0.07,-0.28 -0.08,-0.07 -0.29,-0.07 v 0 h -0.61 q -0.22,0 -0.29,0.07 -0.07,0.06 -0.07,0.28 v 0 5.12 q 0,0.22 0.07,0.28 0.07,0.07 0.29,0.07 v 0 h 0.61 q 0.21,0 0.29,-0.07 0.07,-0.06 0.07,-0.28 v 0 -1.83 h -0.6 v -0.84 h 1.69 v 2.8 q 0,1.07 -1.12,1.07 v 0 h -1.28 q -1.12,0 -1.12,-1.07 v 0 -5.4 q 0,-1.05 1.12,-1.05 v 0 h 1.28 q 1.12,0 1.12,1.05 z m 5.8,3.42 H 38.39 V 0 h -1.08 v -7.51 h 2.46 q 1.11,0 1.11,1.05 v 0 2.36 q 0,0.91 -0.8,1.04 v 0 L 41.27,0 H 40.1 Z m 0.46,-3.6 h -1.05 v 2.74 h 1.05 q 0.22,0 0.29,-0.07 0.07,-0.06 0.07,-0.28 v 0 -2.04 q 0,-0.21 -0.07,-0.28 -0.07,-0.07 -0.29,-0.07 z m 6.69,-0.87 v 0 h 1.33 q 1.12,0 1.12,1.05 v 0 5.4 Q 48.58,0 47.46,0 V 0 H 46.13 Q 45,0 45,-1.06 v 0 -5.4 q 0,-1.05 1.13,-1.05 z m 1.37,6.29 v 0 -5.07 q 0,-0.21 -0.08,-0.28 -0.07,-0.07 -0.28,-0.07 v 0 h -0.7 q -0.22,0 -0.28,0.07 -0.07,0.07 -0.07,0.28 v 0 5.07 q 0,0.21 0.07,0.28 0.06,0.06 0.28,0.06 v 0 h 0.7 q 0.21,0 0.28,-0.06 0.08,-0.07 0.08,-0.28 z m 7.74,0 v -6.29 h 1.09 v 6.45 Q 56.33,0 55.2,0 v 0 h -1.33 q -1.13,0 -1.13,-1.06 v 0 -6.45 h 1.09 v 6.29 q 0,0.21 0.07,0.28 0.08,0.06 0.29,0.06 v 0 h 0.69 q 0.22,0 0.29,-0.06 0.07,-0.07 0.07,-0.28 z m 7.98,-1.02 v -5.27 h 0.99 V 0 H 63.12 L 61.54,-5.42 V 0 h -1 v -7.51 h 1.14 z M 68.48,0 v -7.51 h 2.62 q 1.12,0 1.12,1.05 v 0 5.4 Q 72.22,0 71.1,0 v 0 z m 2.64,-1.2 v 0 -5.11 q 0,-0.22 -0.07,-0.28 -0.07,-0.07 -0.29,-0.07 v 0 h -1.18 v 5.81 h 1.18 q 0.22,0 0.29,-0.07 0.07,-0.06 0.07,-0.28 z"
           transform="matrix(2.56,0,0,2.56,114.38359,154.9366)"
           id="path89"
           style="fill:#333333;fill-opacity:1" />
        <g
           transform="translate(109.25799,71.334678)"
           id="g1455"
           style="fill:#333333;fill-opacity:1">
          <g
             id="g69"
             style="fill:#333333;fill-opacity:1">
            <g
               data-gra="path-name"
               fill="#333333"
               transform="translate(0,3)"
               id="g67"
               style="fill:#333333;fill-opacity:1">
              <g
                 id="g65"
                 style="fill:#333333;fill-opacity:1">
                <path
                   d="m 6.31,-56.22 v 0 h 1.14 q 4.47,0 7.21,7.05 v 0 q 0.16,0.04 14.12,27.65 v 0 q 0.12,-0.04 5.76,-10.94 v 0 q -7.68,-14.78 -7.8,-15.69 v 0 q -0.16,-1.21 -0.24,-1.45 v 0 q 0,-4.15 4.75,-6.31 v 0 q 1.02,-0.31 1.68,-0.31 v 0 h 1.14 q 4.55,0 7.33,7.29 v 0 q 0.2,0.04 0.67,1.33 v 0 q 0.12,0 3.17,-5.88 v 0 q 2.32,-2.74 4.98,-2.74 v 0 h 1.1 q 3.77,0 6,4.31 v 0 q 0.43,1.37 0.43,2.43 v 0 q 0,1.96 -3.14,7.61 v 0 q -4.74,8.94 -4.74,9.41 v 0 q 5.53,10.78 5.53,10.94 v 0 q 0.2,-0.2 16.47,-31.96 v 0 q 2.27,-2.74 4.98,-2.74 v 0 h 1.13 q 3.49,0 5.73,3.88 v 0 q 0.58,1.1 0.58,2.08 v 0 1.33 q 0,1.73 -4.97,10.59 v 0 Q 61.48,-3.06 60.81,-2.31 v 0 Q 58.57,0 56.18,0 v 0 h -1.25 q -4.47,0 -6.75,-5.96 v 0 q -5.88,-11.37 -6.11,-11.6 v 0 q -7.29,14.85 -8.35,15.8 v 0 Q 31.48,0 29.56,0 v 0 h -1.25 q -4.55,0 -6.98,-6.39 v 0 Q 0.27,-47.13 0.24,-47.83 v 0 Q 0,-48.26 0,-49.05 v 0 -0.86 q 0,-4.39 5.41,-6.19 v 0 q 0.43,-0.12 0.9,-0.12 z"
                   transform="translate(0,56.222325)"
                   id="path63"
                   style="fill:#333333;fill-opacity:1" />
              </g>
            </g>
          </g>
          <g
             transform="translate(88.29428)"
             id="g77"
             style="fill:#333333;fill-opacity:1">
            <g
               data-gra="path-name"
               fill="#333333"
               transform="translate(0,3)"
               id="g75"
               style="fill:#333333;fill-opacity:1">
              <g
                 id="g73"
                 style="fill:#333333;fill-opacity:1">
                <path
                   d="m 6.82,-56.22 v 0 h 0.47 q 4.28,0 6.47,4.74 v 0 q 0.35,1.22 0.35,2.31 v 0 10.51 q 30.98,-16.11 33.8,-17.33 v 0 q 0.82,-0.23 1.57,-0.23 v 0 h 0.78 q 4.51,0 6.47,5.17 v 0 q 0.12,0.63 0.12,1.02 v 0 1.53 q 0,3.69 -5.02,6.08 v 0 q -27.44,14.27 -27.64,14.27 v 0 0.08 q 28.7,14.7 30.19,15.68 v 0 q 2.47,2.47 2.47,4.67 v 0 1.53 q 0,3.56 -4.35,5.76 v 0 Q 51.36,0 50.46,0 v 0 h -1.22 q -1.72,0 -9.29,-4.2 v 0 L 14.11,-17.56 v 10.5 q 0,4.98 -5.25,6.82 v 0 Q 8,0 7.29,0 V 0 H 7.06 Q 1.84,0 0.12,-5.53 v 0 Q 0,-5.96 0,-6.39 v 0 -43.44 q 0,-3.33 3.8,-5.61 v 0 q 1.53,-0.78 3.02,-0.78 z"
                   transform="translate(0,56.222325)"
                   id="path71"
                   style="fill:#333333;fill-opacity:1" />
              </g>
            </g>
          </g>
          <g
             transform="translate(149.14391)"
             id="g85"
             style="fill:#333333;fill-opacity:1">
            <g
               data-gra="path-name"
               fill="#333333"
               transform="translate(0,3)"
               id="g83"
               style="fill:#333333;fill-opacity:1">
              <g
                 id="g81"
                 style="fill:#333333;fill-opacity:1">
                <path
                   d="m 6.59,-56.22 v 0 h 43.87 q 3.61,0 5.96,4.19 v 0 q 0.43,1.3 0.43,2 v 0 1.57 q 0,3.37 -4.23,5.65 v 0 q -1.38,0.55 -2.59,0.55 v 0 H 35.48 v 35.71 q 0,4.35 -5.13,6.43 v 0 L 29.21,0 h -1.57 q -3.41,0 -5.72,-4.2 v 0 q -0.55,-1.37 -0.55,-2.54 v 0 -35.52 H 7.17 q -4.97,0 -6.93,-4.98 v 0 Q 0,-48.26 0,-48.69 v 0 -0.98 q 0,-4.28 5.02,-6.32 v 0 q 0.86,-0.23 1.57,-0.23 z"
                   transform="translate(0,56.222325)"
                   id="path79"
                   style="fill:#333333;fill-opacity:1" />
              </g>
            </g>
          </g>
        </g>
      </g>
      <g
         id="g1190"
         transform="matrix(0.92397034,0,0,0.92397034,0.91007503,14.429886)"
         style="fill:#0078d4;fill-opacity:1">
        <g
           id="g1425"
           style="fill:#0078d4;fill-opacity:1">
          <path
             id="line8"
             style="fill:#0078d4;fill-opacity:1;stroke:#0078d4;stroke-width:8;stroke-linecap:round;stroke-miterlimit:10"
             d="M 26.889999,37.505001 108.329,16.034" />
          <path
             id="line10"
             style="fill:#0078d4;fill-opacity:1;stroke:#0078d4;stroke-width:8;stroke-linecap:round;stroke-miterlimit:10"
             d="M 108.329,17.158001 126.376,126.299" />
          <path
             id="line12"
             style="fill:#0078d4;fill-opacity:1;stroke:#0078d4;stroke-width:8;stroke-linecap:round;stroke-miterlimit:10"
             d="M 126.376,127.391 25.764,105.985" />
          <path
             id="line14"
             style="fill:#0078d4;fill-opacity:1;stroke:#0078d4;stroke-width:8;stroke-linecap:round;stroke-miterlimit:10"
             d="M 24.311001,105.397 27.216999,38.476002" />
        </g>
        <g
           id="g1439"
           style="fill:#0078d4;fill-opacity:1">
          <g
             id="g22"
             style="fill:#0078d4;fill-opacity:1;stroke:#0078d4;stroke-opacity:1">
            <path
               id="rect18"
               style="fill:#0078d4;fill-opacity:1;stroke-width:2;stroke-linejoin:bevel;stroke-miterlimit:10"
               d="m 110.198,109.037 h 27.84 v 26.674 h -27.84 z" />
            <path
               id="rect20"
               style="fill:#0078d4;fill-opacity:1;stroke-width:2;stroke-linejoin:bevel;stroke-miterlimit:10"
               d="m 115.967,113.892 h 17.306 v 16.052 h -17.306 z" />
          </g>
          <g
             id="g28"
             style="fill:#0078d4;fill-opacity:1;stroke:#0078d4;stroke-opacity:1">
            <path
               id="rect24"
               style="fill:#0078d4;fill-opacity:1;stroke-width:2;stroke-linejoin:bevel;stroke-miterlimit:10"
               d="M 94.408997,3.8210001 H 122.249 V 30.495 H 94.408997 Z" />
            <path
               id="rect26"
               style="fill:#0078d4;fill-opacity:1;stroke-width:2;stroke-linejoin:bevel;stroke-miterlimit:10"
               d="m 100.178,8.6750002 h 17.306 V 24.727 h -17.306 z" />
          </g>
          <g
             id="g34"
             style="fill:#0078d4;fill-opacity:1;stroke:#0078d4;stroke-opacity:1">
            <path
               id="rect30"
               style="fill:#0078d4;fill-opacity:1;stroke-width:2;stroke-linejoin:bevel;stroke-miterlimit:10"
               d="m 13.297,92.060997 h 27.84 V 118.735 h -27.84 z" />
            <path
               id="rect32"
               style="fill:#0078d4;fill-opacity:1;stroke-width:2;stroke-linejoin:bevel;stroke-miterlimit:10"
               d="M 19.065001,96.915001 H 36.371 V 112.967 H 19.065001 Z" />
          </g>
          <g
             id="g40"
             style="fill:#0078d4;fill-opacity:1;stroke:#0078d4;stroke-opacity:1">
            <path
               id="rect36"
               style="fill:#0078d4;fill-opacity:1;stroke-width:2;stroke-linejoin:bevel;stroke-miterlimit:10"
               d="M 12.97,25.139 H 40.81 V 51.813 H 12.97 Z" />
            <path
               id="rect38"
               style="fill:#0078d4;fill-opacity:1;stroke-width:2;stroke-linejoin:bevel;stroke-miterlimit:10"
               d="m 18.738001,29.993999 h 17.306 V 46.046 h -17.306 z" />
          </g>
        </g>
      </g>
    </g>
  </g>
  <defs
     id="defs1464" />
</svg>
